# xmcd CD database file
#
# Track frame offsets:
#	150
#	11865
#	27730
#	47042
#	61047
#	73312
#	85020
#	97790
#	108737
#	120150
#	135845
#
# Disc length: 1983 seconds
#
# Revision: 3
# Processed by: cddbd v1.5.2PL0 Copyright (c) Steve Scherf et al.
# Submitted via: CDex 1.40Release
#
DISCID=8907bd0b
DTITLE=Joe Ely - Musta Notta Gotta Lotta
DYEAR=1981
DGENRE=Country
TTITLE0=Musta Notta Gotta Lotta
TTITLE1=Dallas
TTITLE2=Wishin' For You
TTITLE3=Hold On
TTITLE4=Rock Me Baby
TTITLE5=I Keep Gettin' Paid The Same
TTITLE6=Good Rockin' Tonight
TTITLE7=Hard Livin'
TTITLE8=Road Hawg
TTITLE9=Dam Of My Heart
TTITLE10=Bet Me
EXTD=YEAR: 1981 ID3G: 2
EXTT0=
EXTT1=
EXTT2=
EXTT3=
EXTT4=
EXTT5=
EXTT6=
EXTT7=
EXTT8=
EXTT9=
EXTT10=
PLAYORDER=
